<svg width="98" height="132" fill="none" xmlns="http://www.w3.org/2000/svg"><path d="M48.815 131.196c-18.544 0-34.526-6.405-47.946-19.215l17.019-20.313c10.248 9.272 20.435 13.908 30.561 13.908 6.71 0 11.956-1.586 15.738-4.758 3.782-3.172 5.673-7.625 5.673-13.359 0-5.368-2.074-9.577-6.222-12.627-4.148-3.172-9.638-4.758-16.47-4.758-6.832 0-13.969 1.586-21.411 4.758L9.47 64.035 13.13.9h78.69v24.705H37.286l-1.464 22.143c5.856-1.464 11.468-2.196 16.836-2.196 13.298 0 24.095 3.416 32.391 10.248 8.296 6.832 12.444 17.202 12.444 31.11 0 13.542-4.453 24.339-13.359 32.391-8.784 7.93-20.557 11.895-35.319 11.895z" fill="url(#a)"/><defs><linearGradient id="a" x1="14.025" y1="6.607" x2="42.807" y2="137.505" gradientUnits="userSpaceOnUse"><stop stop-color="#8A2645"/><stop offset=".67" stop-color="#291725"/><stop offset=".989" stop-color="#171422"/></linearGradient></defs></svg>