<svg width="54" height="56" fill="none" xmlns="http://www.w3.org/2000/svg"><path d="m42.307 1.015 10.78 11.237v42.734h-40.27v.14h40.408V12.393L42.307 1.014z" fill="#909090"/><path d="M42.174.875H12.68v54.11h40.408V12.255L42.174.875z" fill="#F4F4F4"/><path d="M12.38 3.781H0V17.01h38.944V3.78H12.38z" fill="#7A7B7C"/><path d="M39.153 16.784H.253V3.547h38.9v13.237z" fill="#DD2025"/><path d="M13.153 5.785h-2.532v9.3h1.992v-3.137l.44.025c.427-.007.85-.084 1.253-.227.353-.121.678-.313.955-.564a2.37 2.37 0 0 0 .65-.88 4.127 4.127 0 0 0 .203-1.758 4.333 4.333 0 0 0-.221-1.248 2.273 2.273 0 0 0-1.331-1.26 4.324 4.324 0 0 0-1.41-.252m-.367 4.445h-.172V7.362h.374a1.104 1.104 0 0 1 .89.35c.232.312.357.692.354 1.082 0 .476 0 .908-.43 1.213-.31.17-.663.249-1.016.222zM19.895 5.76c-.215 0-.424.015-.571.02l-.461.012h-1.511v9.3h1.778a5.187 5.187 0 0 0 1.992-.339c.511-.202.964-.53 1.317-.95.344-.426.59-.921.723-1.452.152-.601.227-1.219.221-1.839a8.555 8.555 0 0 0-.169-2.183 3.442 3.442 0 0 0-.775-1.42 3.158 3.158 0 0 0-1.036-.776 4.675 4.675 0 0 0-1.064-.344 2.484 2.484 0 0 0-.442-.033m-.352 7.628h-.194V7.447h.025c.4-.046.804.026 1.163.207.263.21.477.475.627.775.163.317.257.664.276 1.02.017.426 0 .774 0 1.063a5.67 5.67 0 0 1-.064.994 3.4 3.4 0 0 1-.328.969 2.188 2.188 0 0 1-.703.697 1.304 1.304 0 0 1-.806.206M29.384 5.792h-4.708v9.3h1.992v-3.689h2.518V9.675h-2.518V7.521h2.712V5.792" fill="#464648"/><path d="M37.816 36.244s6.176-1.12 6.176.99c0 2.11-3.826 1.252-6.176-.99zm-4.567.161c-.982.217-1.938.534-2.854.947l.775-1.743c.775-1.744 1.579-4.121 1.579-4.121.925 1.556 2 3.018 3.212 4.363-.913.136-1.819.322-2.712.558v-.004zm-2.445-12.594c0-1.838.595-2.34 1.058-2.34.463 0 .984.223 1.001 1.819a20.895 20.895 0 0 1-1.001 4.716 8.576 8.576 0 0 1-1.06-4.189l.002-.006zm-9.008 20.375c-1.895-1.133 3.974-4.623 5.038-4.735-.006.002-3.054 5.92-5.038 4.735zm24-6.702c-.02-.194-.194-2.338-4.01-2.247a27.56 27.56 0 0 0-4.753.335 24.304 24.304 0 0 1-3.898-5.144 22.784 22.784 0 0 0 1.207-6.006c-.057-2.326-.613-3.659-2.395-3.64-1.783.02-2.042 1.58-1.808 3.901.23 1.56.663 3.083 1.289 4.53 0 0-.824 2.563-1.913 5.113-1.089 2.55-1.833 3.887-1.833 3.887a18.64 18.64 0 0 0-5.28 2.712c-1.596 1.486-2.245 2.627-1.404 3.769.725.984 3.26 1.207 5.528-1.764a43.69 43.69 0 0 0 3.294-4.828s3.456-.947 4.531-1.207a35.713 35.713 0 0 1 2.376-.465s3.156 3.176 6.2 3.063c3.044-.112 2.896-1.819 2.877-2.005" fill="#DD2025"/><path d="M42.023 1.024v11.38h10.914L42.023 1.023z" fill="#909090"/><path d="M42.172.875v11.379h10.914L42.172.875z" fill="#F4F4F4"/><path d="M13.001 5.635H10.47v9.3h2V11.8l.441.026c.427-.008.85-.084 1.254-.227.353-.122.678-.313.955-.564.28-.24.5-.54.643-.88a4.127 4.127 0 0 0 .203-1.759 4.336 4.336 0 0 0-.22-1.248 2.274 2.274 0 0 0-1.331-1.259A4.325 4.325 0 0 0 13 5.635m-.367 4.445h-.172V7.212h.375a1.104 1.104 0 0 1 .89.351c.233.312.357.692.354 1.081 0 .477 0 .909-.43 1.213-.31.17-.662.247-1.015.22M19.745 5.61c-.215 0-.424.016-.571.021l-.456.012h-1.511v9.3h1.779a5.185 5.185 0 0 0 1.991-.339c.512-.203.965-.53 1.318-.951.343-.426.59-.921.723-1.452.152-.6.226-1.218.22-1.838a8.555 8.555 0 0 0-.168-2.184 3.443 3.443 0 0 0-.775-1.42 3.157 3.157 0 0 0-1.037-.775 4.675 4.675 0 0 0-1.063-.345 2.485 2.485 0 0 0-.442-.033m-.353 7.628h-.194V7.298h.026c.4-.046.803.026 1.162.207.263.21.477.474.628.775.163.316.256.664.275 1.02.017.425 0 .774 0 1.063a5.67 5.67 0 0 1-.064.994c-.06.337-.17.664-.327.969a2.189 2.189 0 0 1-.704.697 1.304 1.304 0 0 1-.806.205M29.235 5.643h-4.708v9.3h1.992v-3.689h2.519V9.526h-2.519V7.37h2.713V5.643" fill="#fff"/></svg>