<svg width="98" height="132" fill="none" xmlns="http://www.w3.org/2000/svg"><path d="M50.913 131.196c-20.862 0-37.515-7.381-49.959-22.143L20.352 90.57c9.15 10.248 19.459 15.372 30.927 15.372 5.368 0 9.699-1.403 12.993-4.209 3.416-2.928 5.124-6.832 5.124-11.712 0-5.246-2.196-9.272-6.588-12.078-4.392-2.806-10.553-4.209-18.483-4.209H32.613L28.221 55.8l30.561-30.744H8.457V.9h86.559v21.228L62.625 53.055c22.936 3.904 34.404 15.982 34.404 36.234 0 12.322-4.209 22.387-12.627 30.195-8.296 7.808-19.459 11.712-33.489 11.712z" fill="url(#a)"/><defs><linearGradient id="a" x1="14.662" y1="6.607" x2="43.901" y2="137.292" gradientUnits="userSpaceOnUse"><stop stop-color="#8A2645"/><stop offset=".67" stop-color="#291725"/><stop offset=".989" stop-color="#171422"/></linearGradient></defs></svg>