<svg width="96" height="130" fill="none" xmlns="http://www.w3.org/2000/svg"><path d="M.967 130v-22.326l42.639-34.953c8.418-6.954 14.213-12.505 17.385-16.653 3.172-4.27 4.758-8.967 4.758-14.091 0-5.246-1.586-9.333-4.758-12.261-3.172-2.928-7.32-4.392-12.444-4.392-4.758 0-9.089 1.342-12.993 4.026-3.782 2.562-8.174 6.954-13.176 13.176L2.614 26.605c6.71-9.15 13.603-15.86 20.679-20.13C30.491 2.205 39.519.07 50.377.07c13.298 0 23.973 3.66 32.025 10.98 8.052 7.198 12.078 16.836 12.078 28.914 0 6.954-1.342 13.237-4.026 18.849-2.684 5.49-6.161 10.37-10.431 14.64-4.27 4.148-10.675 9.516-19.215 16.104l-20.862 16.104h55.815V130H.967z" fill="url(#a)"/><defs><linearGradient id="a" x1="12.844" y1="7.607" x2="41.852" y2="138.4" gradientUnits="userSpaceOnUse"><stop stop-color="#8A2645"/><stop offset=".67" stop-color="#291725"/><stop offset=".989" stop-color="#171422"/></linearGradient></defs></svg>